<svg viewBox="0 0 75 40" fill="none" xmlns="http://www.w3.org/2000/svg">
  <path fill-rule="evenodd" clip-rule="evenodd"
        d="M0 0H63.0366L75 11.984V40H11.9634L0 28.016V0ZM0.935162 1.59916V27.628L11.6895 38.4008V12.372L0.935162 1.59916ZM1.59642 0.936768L12.3508 11.7096H73.4036L62.6492 0.936768H1.59642ZM74.0648 39.0632H12.6247V12.6464H74.0648V39.0632Z"
        fill="currentColor"/>
  <path
    d="M23.7132 23.1331C23.7132 24.0684 23.09 24.879 21.5943 24.879C20.9399 24.879 20.4102 24.7232 19.9427 24.5361V23.2267C20.4413 23.4761 21.0334 23.632 21.5631 23.632C22.0617 23.632 22.311 23.4761 22.311 23.1955C22.311 22.3225 19.9427 22.6031 19.9427 20.826C19.9427 19.7348 20.8153 19.0801 22.0305 19.0801C22.5291 19.0801 22.9965 19.2048 23.4951 19.4854V20.826C22.8407 20.4207 22.3733 20.296 21.9994 20.296C21.5631 20.296 21.3138 20.4519 21.3138 20.7325C21.2827 21.5431 23.7132 21.2313 23.7132 23.1331Z"
    fill="currentColor" />
  <path
    d="M24.8973 21.9796C24.8973 20.3895 26.2061 19.0801 27.7953 19.0801C29.3845 19.0801 30.6933 20.3895 30.6933 21.9796C30.6933 23.5696 29.3845 24.879 27.7953 24.879C26.2061 24.8479 24.8973 23.5696 24.8973 21.9796ZM29.2599 21.9796C29.2599 21.1066 28.6055 20.4519 27.7953 20.4519C26.9851 20.4519 26.3307 21.1066 26.3307 21.9796C26.3307 22.8525 26.9851 23.5072 27.7953 23.5072C28.6055 23.5072 29.2599 22.8525 29.2599 21.9796Z"
    fill="currentColor" />
  <path
    d="M33.934 18.7371V19.2048H35.7725L35.1493 20.5142H33.9652V24.7543H32.6253V20.4831H31.6904V19.1736H32.6253V18.6436C32.6253 16.96 33.4978 16.1183 34.8689 16.1183C35.2116 16.1183 35.5233 16.1806 35.8037 16.243V17.5524C35.5544 17.4589 35.274 17.4277 34.9935 17.4277C34.2456 17.4277 33.934 17.9265 33.934 18.7371Z"
    fill="currentColor"/>
  <path
    d="M38.577 20.4831V22.6966C38.577 23.289 38.9198 23.5384 39.4495 23.5384C39.7923 23.5384 40.1351 23.4449 40.4155 23.2578V24.6296C40.0416 24.7855 39.6988 24.879 39.2002 24.879C37.985 24.879 37.2371 24.2243 37.2371 22.8837V20.5142H36.4269V19.2048H37.2371V17.7707L38.577 17.4277V19.2048H40.4155V20.5142H38.577V20.4831Z"
    fill="currentColor" />
  <path
    d="M50.1066 19.2048L48.3304 24.7543H46.9905L45.7752 20.9507L44.5288 24.7543H43.1889L41.4127 19.2048H42.9396L43.9367 22.9149L45.1208 19.2048H46.4608L47.6449 22.9149L48.642 19.2048H50.1066Z"
    fill="currentColor" />
  <path
    d="M50.7922 21.9796C50.7922 20.3895 51.9451 19.0801 53.5344 19.0801C54.1576 19.0801 54.6562 19.2672 55.0301 19.5789V19.2048H56.37V24.7543H55.0612V24.3178C54.6873 24.6608 54.1576 24.879 53.5032 24.879C51.9763 24.8479 50.7922 23.5696 50.7922 21.9796ZM55.1547 21.9796C55.1547 21.1066 54.5003 20.4519 53.6902 20.4519C52.88 20.4519 52.2256 21.1066 52.2256 21.9796C52.2256 22.8525 52.88 23.5072 53.6902 23.5072C54.5003 23.5072 55.1547 22.8525 55.1547 21.9796Z"
    fill="currentColor" />
  <path
    d="M58.2708 19.2048H59.5796V19.953C59.9847 19.2048 60.7326 19.0801 61.3869 19.0801V20.6701C60.4521 20.4207 59.6108 20.9507 59.6108 22.1355V24.7232H58.2708V19.2048Z"
    fill="currentColor" />
  <path
    d="M65.6248 23.5696C66.1546 23.5696 66.7778 23.4761 67.401 23.2267L66.7155 24.6296C66.4039 24.7543 65.9364 24.879 65.3755 24.879C63.4124 24.879 62.2283 23.6631 62.2283 21.9796C62.2283 20.3895 63.4124 19.0801 65.1262 19.0801C66.2792 19.0801 67.214 19.6725 67.588 20.4207V22.4472H63.6617C63.8486 23.1019 64.503 23.5696 65.6248 23.5696ZM63.6305 21.3872H66.5285C66.3415 20.7325 65.7806 20.3272 65.0639 20.3272C64.3784 20.3272 63.8486 20.7637 63.6305 21.3872Z"
    fill="currentColor" />
  <path
    d="M27.7019 29.4309V33.0786H26.3619V29.6491C26.3619 29.0568 25.9257 28.7138 25.4894 28.7138C25.022 28.7138 24.6169 29.0568 24.6169 29.6491V33.0786H23.277V29.6491C23.277 29.0568 22.8407 28.7138 22.4045 28.7138C21.9371 28.7138 21.532 29.0568 21.532 29.6491V33.0786H20.192V27.5291H21.5008V27.9344C21.8124 27.5603 22.2175 27.4356 22.7472 27.4356C23.3393 27.4356 23.8379 27.685 24.1807 28.1526C24.6169 27.6538 25.1778 27.4356 25.8634 27.4356C26.8917 27.4356 27.7019 28.2462 27.7019 29.4309Z"
    fill="currentColor" />
  <path
    d="M29.1041 30.3039C29.1041 28.7138 30.257 27.4044 31.8462 27.4044C32.4694 27.4044 32.968 27.5915 33.342 27.9032V27.5291H34.6819V33.0786H33.3731V32.6422C32.9992 32.9851 32.4695 33.2033 31.8151 33.2033C30.2882 33.2033 29.1041 31.8939 29.1041 30.3039ZM33.4666 30.3039C33.4666 29.4309 32.8122 28.7762 32.002 28.7762C31.1918 28.7762 30.5375 29.4309 30.5375 30.3039C30.5375 31.1768 31.1918 31.8315 32.002 31.8315C32.8122 31.8315 33.4666 31.1768 33.4666 30.3039Z"
    fill="currentColor" />
  <path
    d="M36.5204 27.5291H37.8292V27.9344C38.2343 27.5291 38.764 27.4044 39.2937 27.4044C40.4467 27.4044 41.3815 28.2773 41.3815 29.4621V33.0475H40.0416V29.7739C40.0416 29.1815 39.5742 28.7138 38.9821 28.7138C38.3901 28.7138 37.9226 29.1815 37.9226 29.7739V33.0786H36.5827V27.5291H36.5204Z"
    fill="currentColor" />
  <path
    d="M46.7724 31.4574C46.7724 32.3927 46.1492 33.2033 44.6535 33.2033C43.9991 33.2033 43.4693 33.0475 43.0019 32.8604V31.551C43.5005 31.8004 44.0926 31.9563 44.6223 31.9563C45.1209 31.9563 45.3702 31.8004 45.3702 31.5198C45.3702 30.6468 43.0019 30.9274 43.0019 29.1503C43.0019 28.0591 43.8744 27.4044 45.0897 27.4044C45.5883 27.4044 46.0557 27.5291 46.5543 27.8097V29.1503C45.8999 28.745 45.4325 28.6203 45.0586 28.6203C44.6223 28.6203 44.373 28.7762 44.373 29.0568C44.3418 29.8986 46.7724 29.5868 46.7724 31.4574Z"
    fill="currentColor" />
  <path d="M49.6704 27.5291V33.0786H48.3305V27.5291H49.6704Z" fill="currentColor" />
  <path
    d="M51.0726 30.3039C51.0726 28.7138 52.3814 27.4044 53.9706 27.4044C55.5598 27.4044 56.8686 28.7138 56.8686 30.3039C56.8686 31.8939 55.5598 33.2033 53.9706 33.2033C52.3814 33.2033 51.0726 31.8939 51.0726 30.3039ZM55.4352 30.3039C55.4352 29.4309 54.7808 28.7762 53.9706 28.7762C53.1604 28.7762 52.506 29.4309 52.506 30.3039C52.506 31.1768 53.1604 31.8315 53.9706 31.8315C54.7808 31.8315 55.4352 31.1768 55.4352 30.3039Z"
    fill="currentColor" />
  <path
    d="M58.2396 27.5291H59.5484V27.9344C59.9535 27.5291 60.4832 27.4044 61.013 27.4044C62.1659 27.4044 63.1008 28.2773 63.1008 29.4621V33.0475H61.7608V29.7739C61.7608 29.1815 61.2934 28.7138 60.7014 28.7138C60.1093 28.7138 59.6419 29.1815 59.6419 29.7739V33.0786H58.302V27.5291H58.2396Z"
    fill="currentColor"/>
  <path d="M65.7495 31.551V31.7692H65.2821V33.0786H65.0328V31.7692H64.5653V31.551H65.7495Z" fill="currentColor"/>
  <path
    d="M66.2792 31.551L66.7778 32.7669L67.2452 31.551H67.5568V33.0786H67.3075V31.9563L66.8401 33.0786H66.622L66.1546 31.9563V33.0786H65.9053V31.551H66.2792Z"
    fill="currentColor"/>
</svg>